<?xml version="1.0" encoding="UTF-8" standalone="no"?>
<!-- Generator: Adobe Illustrator 19.1.0, SVG Export Plug-In . SVG Version: 6.00 Build 0)  -->

<svg
   xmlns:dc="http://purl.org/dc/elements/1.1/"
   xmlns:cc="http://creativecommons.org/ns#"
   xmlns:rdf="http://www.w3.org/1999/02/22-rdf-syntax-ns#"
   xmlns:svg="http://www.w3.org/2000/svg"
   xmlns="http://www.w3.org/2000/svg"
   xmlns:sodipodi="http://sodipodi.sourceforge.net/DTD/sodipodi-0.dtd"
   xmlns:inkscape="http://www.inkscape.org/namespaces/inkscape"
   version="1.1"
   id="Capa_1"
   x="0px"
   y="0px"
   viewBox="0 0 297 297"
   style="enable-background:new 0 0 297 297;"
   xml:space="preserve"
   inkscape:version="0.91 r13725"
   sodipodi:docname="football.svg"><metadata
     id="metadata51"><rdf:RDF><cc:Work
         rdf:about=""><dc:format>image/svg+xml</dc:format><dc:type
           rdf:resource="http://purl.org/dc/dcmitype/StillImage" /></cc:Work></rdf:RDF></metadata><defs
     id="defs49" /><sodipodi:namedview
     pagecolor="#ffffff"
     bordercolor="#666666"
     borderopacity="1"
     objecttolerance="10"
     gridtolerance="10"
     guidetolerance="10"
     inkscape:pageopacity="0"
     inkscape:pageshadow="2"
     inkscape:window-width="1920"
     inkscape:window-height="1056"
     id="namedview47"
     showgrid="false"
     inkscape:zoom="0.79461279"
     inkscape:cx="148.5"
     inkscape:cy="148.5"
     inkscape:window-x="0"
     inkscape:window-y="24"
     inkscape:window-maximized="1"
     inkscape:current-layer="Capa_1" /><path
     inkscape:connector-curvature="0"
     id="path5"
     d="M 245.414,108.341 256.999,72.536 C 240.065,48.421 215.139,30.186 186.275,21.545 l -30.108,21.71 0,43.49 48.248,34.863 40.999,-13.267 z"
     style="fill:#ffffff" /><path
     inkscape:connector-curvature="0"
     id="path7"
     d="m 280.966,145.838 -30.605,-22.281 -42.417,13.782 -17.952,55.184 26.064,35.874 38.024,0.064 C 270.964,206.221 281,178.512 281,148.5 c 0,-0.891 -0.017,-1.776 -0.034,-2.662 z"
     style="fill:#ffffff" /><path
     inkscape:connector-curvature="0"
     id="path9"
     d="M 88.872,136.796 46.218,122.938 16.052,144.87 C 16.019,146.076 16,147.286 16,148.5 c 0,29.614 9.768,56.988 26.247,79.076 l 37.722,0.117 26.579,-36.584 -17.676,-54.313 z"
     style="fill:#ffffff" /><path
     inkscape:connector-curvature="0"
     id="path11"
     d="m 92.737,121.283 47.43,-34.536 0,-43.494 L 110.409,21.54 C 81.414,30.217 56.646,48.574 39.702,72.847 l 11.262,34.85 41.773,13.586 z"
     style="fill:#ffffff" /><path
     inkscape:connector-curvature="0"
     id="path13"
     d="m 119.502,200.5 -26.686,36.729 11.812,36.297 C 118.366,278.36 133.13,281 148.5,281 c 14.917,0 29.265,-2.48 42.656,-7.046 l 11.838,-36.315 -26.983,-37.139 -56.509,0 z"
     style="fill:#ffffff" /><path
     inkscape:connector-curvature="0"
     id="path15"
     d="M 148.5,0 C 66.617,0 0,66.617 0,148.5 0,230.383 66.617,297 148.5,297 230.383,297 297,230.383 297,148.5 297,66.617 230.383,0 148.5,0 Z m 7.667,43.255 30.108,-21.71 c 28.864,8.642 53.706,26.876 70.641,50.991 l -11.543,35.805 -40.979,13.268 -48.227,-34.863 0,-43.491 z m -45.758,-21.715 29.758,21.713 0,43.494 -47.43,34.536 L 51.006,107.696 39.66,72.847 C 56.604,48.574 81.414,30.217 110.409,21.54 Z M 42.247,227.576 C 25.768,205.488 16,178.114 16,148.5 c 0,-1.214 0.019,-2.424 0.052,-3.63 l 30.166,-21.933 42.654,13.858 17.676,54.314 -26.579,36.584 -37.722,-0.117 z m 148.909,46.378 C 177.765,278.52 163.417,281 148.5,281 c -15.37,0 -30.134,-2.64 -43.872,-7.475 l -11.812,-36.297 26.686,-36.729 56.509,0 26.983,37.139 -11.838,36.316 z m 24.9,-45.558 -26.064,-35.874 17.952,-55.184 42.417,-13.782 30.605,22.281 c 0.018,0.886 0.034,1.771 0.034,2.662 0,30.012 -10.036,57.721 -26.92,79.96 l -38.024,-0.063 z"
     style="fill:#577a96;fill-opacity:1" /><g
     id="g17" /><g
     id="g19" /><g
     id="g21" /><g
     id="g23" /><g
     id="g25" /><g
     id="g27" /><g
     id="g29" /><g
     id="g31" /><g
     id="g33" /><g
     id="g35" /><g
     id="g37" /><g
     id="g39" /><g
     id="g41" /><g
     id="g43" /><g
     id="g45" /></svg>