<?xml version="1.0" encoding="UTF-8" standalone="no"?>
<!-- Created with Inkscape (http://www.inkscape.org/) -->

<svg
   xmlns:dc="http://purl.org/dc/elements/1.1/"
   xmlns:cc="http://creativecommons.org/ns#"
   xmlns:rdf="http://www.w3.org/1999/02/22-rdf-syntax-ns#"
   xmlns:svg="http://www.w3.org/2000/svg"
   xmlns="http://www.w3.org/2000/svg"
   xmlns:xlink="http://www.w3.org/1999/xlink"
   xmlns:sodipodi="http://sodipodi.sourceforge.net/DTD/sodipodi-0.dtd"
   xmlns:inkscape="http://www.inkscape.org/namespaces/inkscape"
   width="107.37859mm"
   height="123.33071mm"
   viewBox="0 0 380.47529 436.99857"
   id="svg2"
   version="1.1"
   inkscape:version="0.91 r13725"
   sodipodi:docname="ojotas2.svg">
  <defs
     id="defs4">
    <clipPath
       id="cp1">
      <path
         id="path4143"
         d="m 612.36,49.78 c 96.68,-116.81 261,3.97 330.35,73.55 89.73,90.02 74,231.66 37.35,346.69 -21.24,66.66 -60.56,204.1 -72.37,309.33 -11.02,98.19 -46.69,296.5 -46.69,296.5 -25.68,114.4 -161.15,76.78 -219.46,65.38 -103.26,-20.3 -93.38,-139 -93.38,-139 -4.67,-71.2 11.76,-153.35 32.69,-259.14 C 601.86,636.87 599.75,535.8 576.94,424.7 554.1,313.4 545.4,130.62 612.36,49.7 Z"
         inkscape:connector-curvature="0" />
    </clipPath>
  </defs>
  <sodipodi:namedview
     id="base"
     pagecolor="#ffffff"
     bordercolor="#666666"
     borderopacity="1.0"
     inkscape:pageopacity="0.0"
     inkscape:pageshadow="2"
     inkscape:zoom="0.98994949"
     inkscape:cx="220.07175"
     inkscape:cy="207.08926"
     inkscape:document-units="px"
     inkscape:current-layer="layer1"
     showgrid="false"
     fit-margin-top="0"
     fit-margin-left="0"
     fit-margin-right="0"
     fit-margin-bottom="0"
     inkscape:window-width="1920"
     inkscape:window-height="1056"
     inkscape:window-x="0"
     inkscape:window-y="24"
     inkscape:window-maximized="1"
     units="mm" />
  <metadata
     id="metadata7">
    <rdf:RDF>
      <cc:Work
         rdf:about="">
        <dc:format>image/svg+xml</dc:format>
        <dc:type
           rdf:resource="http://purl.org/dc/dcmitype/StillImage" />
        <dc:title></dc:title>
      </cc:Work>
    </rdf:RDF>
  </metadata>
  <g
     inkscape:label="Layer 1"
     inkscape:groupmode="layer"
     id="layer1"
     transform="translate(-6.417064,-336.46616)">
    <image
       clip-path="url(#cp1)"
       id="image4150"
       xlink:href="https://openclipart.org/download/286261/floralpattern.svg"
       height="1500"
       width="1840"
       y="-290"
       x="-270"
       style="display:none"
       transform="translate(-410.76428,-249.15819)" />
    <image
       style="display:none"
       x="-270"
       y="-290"
       width="1840"
       height="1500"
       xlink:href="https://openclipart.org/download/286261/floralpattern.svg"
       id="image4197"
       clip-path="url(#cp1)"
       transform="matrix(-1,0,0,1,599.33572,-249.15819)" />
    <g
       id="g4352"
       transform="matrix(0.93582122,-0.35247502,0.35247502,0.93582122,-146.05742,114.65441)">
      <path
         inkscape:connector-curvature="0"
         style="fill:#ffffff;stroke:#93566a;stroke-width:2.06660271;stroke-miterlimit:4;stroke-dasharray:none;stroke-opacity:1"
         d="m 215.96411,353.64655 c 33.29986,-40.23331 89.89722,1.3674 113.78371,25.33311 30.90604,31.00593 25.4881,79.79153 12.8646,119.41175 -7.31578,22.95996 -20.85891,70.29894 -24.92668,106.54371 -3.79566,33.81995 -16.08161,102.12462 -16.08161,102.12462 -8.84506,39.40323 -55.50551,26.44563 -75.58944,22.51908 -35.56624,-6.992 -32.16323,-47.87629 -32.16323,-47.87629 -1.60851,-24.52369 4.05054,-52.81893 11.25954,-89.25658 7.23656,-36.58576 6.5098,-71.39768 -1.34674,-109.66428 C 195.8974,444.44619 192.90082,381.49058 215.96411,353.619 Z"
         id="path4148" />
      <path
         id="path4156"
         d="m 328.2082,562.79364 c -0.13433,-4.23998 -0.25144,-8.70039 -0.44088,-12.39961 -0.15155,-2.93802 -0.3341,-5.71071 -0.57176,-8.35252 -0.23766,-2.64181 -0.52698,-5.14929 -0.89208,-7.53621 -0.3651,-2.38349 -0.79564,-4.64642 -1.33641,-6.8129 -0.26865,-1.08497 -0.56142,-2.14927 -0.88175,-3.18602 -0.32032,-1.03674 -0.6682,-2.05282 -1.04363,-3.04479 -0.37543,-0.99542 -0.78875,-1.97016 -1.22618,-2.92769 -0.0276,-0.0585 -0.0586,-0.11366 -0.0861,-0.17222 0.25143,0.71298 0.5442,1.43285 0.77497,2.14238 7.74287,23.96226 -19.29862,60.71335 -36.18621,84.83749 -6.49602,11.69353 2.51781,31.71891 21.31012,10.45012 6.07581,-12.89904 14.76243,-32.22178 20.57992,-53.00147 z"
         inkscape:connector-curvature="0"
         style="fill:#93566a;fill-opacity:1;stroke:#880088;stroke-width:0.68886763" />
      <path
         id="path4158"
         d="m 204.7149,538.5455 c -0.062,0.16533 -0.13433,0.32722 -0.19288,0.49599 -0.36855,1.01952 -0.71298,2.06316 -1.0333,3.1309 -0.64065,2.13894 -1.1883,4.37431 -1.67051,6.73713 -0.47876,2.36626 -0.88519,4.85307 -1.24685,7.4811 -0.3651,2.62803 -0.68542,5.40417 -0.98163,8.33185 -0.57176,5.71416 -1.04708,12.0793 -1.60162,19.14708 3.98854,13.63613 8.74173,25.45021 11.94841,33.52718 30.55472,31.76369 16.88759,-15.68207 16.88759,-15.68207 -19.90483,-21.7441 -28.94622,-40.67763 -22.10921,-63.16916 z"
         inkscape:connector-curvature="0"
         style="fill:#93566a;fill-opacity:1;stroke:#880088;stroke-width:0.68886763" />
      <path
         id="path4160"
         d="m 259.71065,399.59402 c 0,0 -1.78073,-2.71069 -4.84619,-2.2216 -3.06546,0.48565 -3.64066,5.01496 -3.63722,5.01152 2.76581,9.16882 1.4294,20.53858 1.4294,20.53858 l 8.83817,1.57062 c 0,0 1.88061,-12.75094 -1.78761,-24.89567 z"
         inkscape:connector-curvature="0"
         style="fill:#93566a;fill-opacity:1;stroke:#880088;stroke-width:0.68886763" />
      <path
         id="path4162"
         d="m 258.17792,411.54587 c -38.1426,34.11617 -54.81664,70.24383 -63.92347,100.91911 -6.97479,23.49383 -2.59703,49.76379 3.73366,71.40457 0.55454,-7.06778 1.0333,-13.43292 1.60506,-19.14708 0.29277,-2.92768 0.61654,-5.70382 0.97819,-8.33185 0.3651,-2.62803 0.76809,-5.11484 1.2503,-7.4811 0.47876,-2.36626 1.02641,-4.59819 1.66706,-6.73713 0.32032,-1.06774 0.66475,-2.11138 1.0333,-3.13434 0.062,-0.16878 0.13088,-0.32722 0.19633,-0.49255 0.75431,-2.48681 1.65672,-5.00462 2.80713,-7.59132 19.88417,-44.56629 38.97269,-73.42984 50.65244,-86.84209 25.16089,14.66255 53.44923,45.6857 63.55837,74.24615 0.0276,0.0585 0.0586,0.11366 0.0861,0.17222 0.43743,0.95752 0.85076,1.93227 1.22619,2.92768 0.37543,0.99542 0.72331,2.00805 1.04708,3.04824 0.32032,1.03675 0.61309,2.10105 0.88175,3.18602 0.53731,2.16648 0.9713,4.42941 1.33296,6.8129 0.3651,2.38348 0.65786,4.89096 0.89552,7.53276 0.23766,2.64181 0.42021,5.4145 0.56832,8.35252 0.18944,3.69922 0.30999,8.15964 0.44088,12.39962 4.95984,-17.71423 7.83586,-36.48587 5.14584,-53.28046 -7.26756,-45.33783 -43.83609,-84.30018 -75.19679,-97.97075 z"
         inkscape:connector-curvature="0"
         style="fill:#93566a;fill-opacity:1;stroke:#93566a;stroke-width:0.68886763;stroke-opacity:1" />
      <path
         id="path4195"
         d="m 142.04173,353.64655 c -33.29986,-40.23331 -89.897224,1.3674 -113.783708,25.33311 -30.906045,31.00593 -25.4881013,79.79153 -12.864603,119.41175 7.315774,22.95996 20.858911,70.29894 24.926675,106.54371 3.79566,33.81995 16.081614,102.12462 16.081614,102.12462 8.84506,39.40323 55.505502,26.44563 75.589442,22.51908 35.56623,-6.992 32.16323,-47.87629 32.16323,-47.87629 1.6085,-24.52369 -4.05054,-52.81893 -11.25954,-89.25658 -7.23656,-36.58576 -6.5098,-71.39768 1.34673,-109.66428 7.86687,-38.33548 10.86344,-101.29109 -12.19984,-129.16267 z"
         style="fill:#ffffff;stroke:#93566a;stroke-width:2.06660271;stroke-miterlimit:4;stroke-dasharray:none;stroke-opacity:1"
         inkscape:connector-curvature="0" />
      <path
         inkscape:connector-curvature="0"
         d="m 29.797641,562.79364 c 0.134329,-4.23998 0.251437,-8.70039 0.440875,-12.39961 0.151551,-2.93802 0.334101,-5.71071 0.57176,-8.35252 0.23766,-2.64181 0.526984,-5.14929 0.892084,-7.53621 0.3651,-2.38349 0.795642,-4.64642 1.336403,-6.8129 0.268658,-1.08497 0.561427,-2.14927 0.881751,-3.18602 0.320323,-1.03674 0.668201,-2.05282 1.043634,-3.04479 0.375433,-0.99542 0.788753,-1.97016 1.226184,-2.92769 0.02755,-0.0585 0.05855,-0.11366 0.08611,-0.17222 -0.251437,0.71298 -0.544206,1.43285 -0.774976,2.14238 -7.742872,23.96226 19.298626,60.71335 36.186215,84.83749 6.496021,11.69353 -2.517811,31.71891 -21.310119,10.45012 -6.075813,-12.89904 -14.762433,-32.22178 -20.57992,-53.00147 z"
         id="path4203"
         style="fill:#93566a;fill-opacity:1;stroke:#880088;stroke-width:0.68886763" />
      <path
         inkscape:connector-curvature="0"
         d="m 153.29094,538.5455 c 0.062,0.16533 0.13432,0.32722 0.19288,0.49599 0.36854,1.01952 0.71298,2.06316 1.0333,3.1309 0.64065,2.13894 1.1883,4.37431 1.6705,6.73713 0.47877,2.36626 0.8852,4.85307 1.24685,7.4811 0.3651,2.62803 0.68543,5.40417 0.98164,8.33185 0.57176,5.71416 1.04708,12.0793 1.60162,19.14708 -3.98855,13.63613 -8.74173,25.45021 -11.94841,33.52718 -30.55472,31.76369 -16.88759,-15.68207 -16.88759,-15.68207 19.90483,-21.7441 28.94622,-40.67763 22.10921,-63.16916 z"
         id="path4205"
         style="fill:#93566a;fill-opacity:1;stroke:#880088;stroke-width:0.68886763" />
      <path
         inkscape:connector-curvature="0"
         d="m 98.295191,399.59402 c 0,0 1.780719,-2.71069 4.846179,-2.2216 3.06547,0.48565 3.64067,5.01496 3.63723,5.01152 -2.76581,9.16882 -1.4294,20.53858 -1.4294,20.53858 l -8.838176,1.57062 c 0,0 -1.880609,-12.75094 1.787611,-24.89567 z"
         id="path4207"
         style="fill:#93566a;fill-opacity:1;stroke:#880088;stroke-width:0.68886763" />
      <path
         inkscape:connector-curvature="0"
         d="m 99.827921,411.54587 c 38.142599,34.11617 54.816639,70.24383 63.923469,100.91911 6.97478,23.49383 2.59703,49.76379 -3.73366,71.40457 -0.55454,-7.06778 -1.0333,-13.43292 -1.60506,-19.14708 -0.29277,-2.92768 -0.61654,-5.70382 -0.9782,-8.33185 -0.3651,-2.62803 -0.76808,-5.11484 -1.25029,-7.4811 -0.47876,-2.36626 -1.02641,-4.59819 -1.66706,-6.73713 -0.32032,-1.06774 -0.66476,-2.11138 -1.0333,-3.13434 -0.062,-0.16878 -0.13089,-0.32722 -0.19633,-0.49255 -0.75431,-2.48681 -1.65673,-5.00462 -2.80713,-7.59132 -19.88417,-44.56629 -38.97269,-73.42984 -50.652439,-86.84209 -25.160889,14.66255 -53.449237,45.6857 -63.558369,74.24615 -0.02755,0.0585 -0.05855,0.11366 -0.08611,0.17222 -0.437431,0.95752 -0.850752,1.93227 -1.226185,2.92768 -0.375433,0.99542 -0.723311,2.00805 -1.047078,3.04824 -0.320324,1.03675 -0.613093,2.10105 -0.881751,3.18602 -0.537317,2.16648 -0.971303,4.42941 -1.332959,6.8129 -0.3651,2.38348 -0.657868,4.89096 -0.895528,7.53276 -0.237659,2.64181 -0.420209,5.4145 -0.568315,8.35252 -0.189439,3.69922 -0.309991,8.15964 -0.440876,12.39962 -4.959846,-17.71423 -7.835869,-36.48587 -5.145841,-53.28046 7.267554,-45.33783 43.83609,-84.30018 75.196788,-97.97075 z"
         id="path4209"
         style="fill:#93566a;fill-opacity:1;stroke:#93566a;stroke-width:0.68886763;stroke-opacity:1" />
    </g>
  </g>
</svg>
