<?xml version="1.0" encoding="UTF-8" standalone="no"?>
<!-- Generator: Adobe Illustrator 18.0.0, SVG Export Plug-In . SVG Version: 6.00 Build 0)  -->

<svg
   xmlns:dc="http://purl.org/dc/elements/1.1/"
   xmlns:cc="http://creativecommons.org/ns#"
   xmlns:rdf="http://www.w3.org/1999/02/22-rdf-syntax-ns#"
   xmlns:svg="http://www.w3.org/2000/svg"
   xmlns="http://www.w3.org/2000/svg"
   xmlns:sodipodi="http://sodipodi.sourceforge.net/DTD/sodipodi-0.dtd"
   xmlns:inkscape="http://www.inkscape.org/namespaces/inkscape"
   version="1.1"
   id="Capa_1"
   x="0px"
   y="0px"
   viewBox="0 0 298.931 298.931"
   style="enable-background:new 0 0 298.931 298.931;"
   xml:space="preserve"
   inkscape:version="0.91 r13725"
   sodipodi:docname="swimsuit.svg"><metadata
     id="metadata113"><rdf:RDF><cc:Work
         rdf:about=""><dc:format>image/svg+xml</dc:format><dc:type
           rdf:resource="http://purl.org/dc/dcmitype/StillImage" /></cc:Work></rdf:RDF></metadata><defs
     id="defs111" /><sodipodi:namedview
     pagecolor="#ffffff"
     bordercolor="#666666"
     borderopacity="1"
     objecttolerance="10"
     gridtolerance="10"
     guidetolerance="10"
     inkscape:pageopacity="0"
     inkscape:pageshadow="2"
     inkscape:window-width="1920"
     inkscape:window-height="1056"
     id="namedview109"
     showgrid="false"
     inkscape:zoom="0.78947985"
     inkscape:cx="149.4655"
     inkscape:cy="149.4655"
     inkscape:window-x="0"
     inkscape:window-y="24"
     inkscape:window-maximized="1"
     inkscape:current-layer="Capa_1" /><path
     inkscape:connector-curvature="0"
     id="path5"
     d="m 135.777,108.207 c -0.293,-0.366 -0.591,-0.732 -0.896,-1.102 0.305,0.37 0.604,0.737 0.896,1.102 z"
     style="fill:none" /><path
     inkscape:connector-curvature="0"
     id="path7"
     d="m 143.861,120.146 c -0.083,-0.147 -0.171,-0.298 -0.258,-0.451 0.088,0.153 0.175,0.304 0.258,0.451 z"
     style="fill:none" /><path
     inkscape:connector-curvature="0"
     id="path9"
     d="m 142.91,118.51 c -0.13,-0.218 -0.263,-0.44 -0.401,-0.667 0.138,0.227 0.272,0.449 0.401,0.667 z"
     style="fill:none" /><path
     inkscape:connector-curvature="0"
     id="path11"
     d="m 141.847,116.77 c -1.571,-2.508 -3.584,-5.448 -6.04,-8.525 2.455,3.075 4.468,6.016 6.04,8.525 z"
     style="fill:none" /><path
     inkscape:connector-curvature="0"
     id="path13"
     d="m 142.389,117.646 c -0.158,-0.258 -0.319,-0.52 -0.487,-0.789 0.168,0.268 0.329,0.53 0.487,0.789 z"
     style="fill:none" /><path
     inkscape:connector-curvature="0"
     id="path15"
     d="m 143.404,119.349 c -0.106,-0.182 -0.216,-0.369 -0.328,-0.559 0.113,0.19 0.222,0.377 0.328,0.559 z"
     style="fill:none" /><path
     inkscape:connector-curvature="0"
     id="path17"
     d="m 149.466,110.002 c 6.902,-10.59 20.197,-26.699 40.245,-33.279 -0.436,-5.173 -1.925,-15.924 -7.015,-27.354 -7.41,-16.642 -19.36,-28.451 -35.611,-35.252 -16.251,6.8 -28.202,18.609 -35.611,35.252 -4.694,10.54 -6.325,20.5 -6.892,26.043 22.649,5.445 37.464,23.203 44.884,34.59 z"
     style="fill:none" /><path
     inkscape:connector-curvature="0"
     id="path19"
     d="m 144.282,120.898 c -0.062,-0.112 -0.128,-0.229 -0.193,-0.346 0.064,0.116 0.131,0.235 0.193,0.346 z"
     style="fill:none" /><path
     inkscape:connector-curvature="0"
     id="path21"
     d="m 144.66,121.592 c -0.037,-0.067 -0.078,-0.142 -0.116,-0.213 0.038,0.071 0.079,0.146 0.116,0.213 z"
     style="fill:none" /><polygon
     id="polygon23"
     points="133.139,105.057 133.146,105.062 133.145,105.062 "
     style="fill:none" /><path
     inkscape:connector-curvature="0"
     id="path25"
     d="m 116.079,90.779 c -0.246,-0.142 -0.495,-0.278 -0.744,-0.415 0.171,0.095 0.342,0.189 0.512,0.286 0.076,0.043 0.154,0.086 0.232,0.129 z"
     style="fill:#fdbd1d" /><path
     inkscape:connector-curvature="0"
     id="path27"
     d="m 111.839,88.57 c 0.052,0.024 0.104,0.046 0.156,0.07 -0.407,-0.192 -0.821,-0.373 -1.234,-0.555 0.139,0.061 0.275,0.124 0.413,0.186 0.222,0.099 0.446,0.196 0.665,0.299 z"
     style="fill:#fdbd1d" /><path
     inkscape:connector-curvature="0"
     id="path29"
     d="m 132.103,103.896 c 0.212,0.232 0.418,0.463 0.625,0.694 -0.207,-0.231 -0.413,-0.462 -0.625,-0.694 z"
     style="fill:#fdbd1d" /><path
     inkscape:connector-curvature="0"
     id="path31"
     d="m 129.019,100.705 c 0.18,0.175 0.352,0.352 0.528,0.528 -0.176,-0.176 -0.348,-0.353 -0.528,-0.528 z"
     style="fill:#fdbd1d" /><polygon
     id="polygon33"
     points="133.139,105.057 133.147,105.064 133.146,105.062 "
     style="fill:#fdbd1d" /><path
     inkscape:connector-curvature="0"
     id="path35"
     d="m 130.603,102.299 c 0.201,0.208 0.396,0.417 0.593,0.625 -0.197,-0.208 -0.392,-0.417 -0.593,-0.625 z"
     style="fill:#fdbd1d" /><path
     inkscape:connector-curvature="0"
     id="path37"
     d="m 134.881,107.106 c 0.305,0.369 0.603,0.736 0.896,1.102 0.01,0.013 0.02,0.025 0.03,0.038 2.456,3.077 4.469,6.016 6.04,8.525 0.018,0.029 0.037,0.058 0.055,0.087 0.168,0.269 0.329,0.53 0.487,0.789 0.04,0.066 0.081,0.132 0.12,0.197 0.138,0.227 0.272,0.449 0.401,0.667 0.056,0.095 0.112,0.187 0.166,0.28 0.112,0.19 0.222,0.377 0.328,0.559 0.068,0.118 0.133,0.232 0.199,0.346 0.087,0.153 0.175,0.304 0.258,0.451 0.079,0.14 0.153,0.272 0.227,0.406 0.065,0.116 0.131,0.234 0.193,0.346 0.092,0.167 0.177,0.325 0.262,0.481 0.038,0.071 0.079,0.145 0.116,0.213 0.121,0.225 0.234,0.439 0.339,0.638 0.869,1.657 2.583,2.694 4.454,2.694 0.003,0 0.004,0 0.005,0 -1.868,-0.003 -3.581,-1.04 -4.448,-2.694 -1.586,-3.025 -4.976,-8.91 -10.164,-15.18 -0.003,0 -0.004,0.002 -0.007,0.002 0.015,0.017 0.029,0.035 0.043,0.053 z"
     style="fill:#fdbd1d" /><path
     inkscape:connector-curvature="0"
     id="path39"
     d="m 114.066,89.67 c -0.145,-0.076 -0.293,-0.147 -0.44,-0.222 0.083,0.042 0.168,0.083 0.251,0.126 0.062,0.033 0.126,0.064 0.189,0.096 z"
     style="fill:#fdbd1d" /><path
     inkscape:connector-curvature="0"
     id="path41"
     d="m 109.696,87.626 c -0.383,-0.157 -0.769,-0.308 -1.158,-0.458 0.171,0.067 0.342,0.135 0.514,0.203 0.214,0.086 0.431,0.168 0.644,0.255 z"
     style="fill:#fdbd1d" /><path
     inkscape:connector-curvature="0"
     id="path43"
     d="m 121.31,94.185 c 0.15,0.109 0.3,0.216 0.449,0.326 -0.362,-0.268 -0.727,-0.533 -1.097,-0.796 0.089,0.063 0.175,0.128 0.264,0.192 0.129,0.091 0.256,0.185 0.384,0.278 z"
     style="fill:#fdbd1d" /><path
     inkscape:connector-curvature="0"
     id="path45"
     d="m 117.464,91.61 c -0.183,-0.112 -0.364,-0.226 -0.549,-0.337 0.099,0.06 0.196,0.122 0.296,0.183 0.084,0.051 0.169,0.103 0.253,0.154 z"
     style="fill:#fdbd1d" /><path
     inkscape:connector-curvature="0"
     id="path47"
     d="m 123.551,95.882 c -0.281,-0.222 -0.564,-0.441 -0.848,-0.661 0.085,0.067 0.17,0.134 0.256,0.201 0.198,0.153 0.397,0.305 0.592,0.46 z"
     style="fill:#fdbd1d" /><path
     inkscape:connector-curvature="0"
     id="path49"
     d="m 124.412,96.578 c -0.09,-0.075 -0.179,-0.151 -0.27,-0.225 0.083,0.067 0.163,0.136 0.244,0.203 0.009,0.008 0.018,0.015 0.026,0.022 z"
     style="fill:#fdbd1d" /><path
     inkscape:connector-curvature="0"
     id="path51"
     d="m 84.701,133.702 c 0.62,1.787 3.806,9.868 12.408,16.519 -8.602,-6.651 -11.787,-14.733 -12.408,-16.519 z"
     style="fill:#fdbd1d" /><path
     inkscape:connector-curvature="0"
     id="path53"
     d="m 105.208,86.008 c -0.703,-0.216 -1.412,-0.424 -2.133,-0.61 0.648,0.168 1.284,0.357 1.917,0.549 0.072,0.02 0.145,0.041 0.216,0.061 z"
     style="fill:#fdbd1d" /><path
     inkscape:connector-curvature="0"
     id="path55"
     d="m 107.559,86.794 c 0.034,0.012 0.07,0.023 0.104,0.035 -0.495,-0.18 -1.001,-0.346 -1.506,-0.513 0.25,0.082 0.498,0.168 0.745,0.254 0.219,0.076 0.441,0.146 0.657,0.224 z"
     style="fill:#fdbd1d" /><path
     inkscape:connector-curvature="0"
     id="path57"
     d="m 209.46,243.556 c -0.436,0.197 -0.915,0.415 -1.423,0.648 0.505,-0.231 0.987,-0.452 1.423,-0.648 z"
     style="fill:#ffffff" /><path
     inkscape:connector-curvature="0"
     id="path59"
     d="m 184.707,186.502 0,0.002 c 0.479,4.749 1.913,9.353 4.28,13.581 -2.367,-4.228 -3.801,-8.833 -4.28,-13.583 z"
     style="fill:#ffffff" /><path
     inkscape:connector-curvature="0"
     id="path61"
     d="m 209.46,243.556 c -1.527,-11.391 -8.417,-22.994 -15.1,-34.249 -1.796,-3.024 -3.653,-6.152 -5.372,-9.222 1.719,3.07 3.576,6.198 5.372,9.223 6.682,11.255 13.573,22.858 15.1,34.248 z"
     style="fill:#ffffff" /><g
     id="g63"><path
       inkscape:connector-curvature="0"
       id="path65"
       d="M 212.717,112.822 C 208.895,97.186 199.66,88.878 195.838,83.878 c -0.003,0 -0.007,0 -0.01,0 3.827,5 13.074,13.301 16.889,28.944 z"
       style="fill:#fda6b6" /><path
       inkscape:connector-curvature="0"
       id="path67"
       d="m 214.154,123.016 c 0.111,1.227 0.174,2.492 0.211,3.775 -0.037,-1.284 -0.099,-2.547 -0.211,-3.775 z"
       style="fill:#fda6b6" /><path
       inkscape:connector-curvature="0"
       id="path69"
       d="m 201.104,150.779 c 9.153,-6.743 12.487,-15.234 13.124,-17.076 0.045,-0.564 0.038,-1.095 0.068,-1.65 -1.309,-21.819 -13.851,-35.239 -18.471,-39.466 -24.233,6.287 -38.148,29.638 -41.919,36.829 -0.869,1.656 -2.584,2.694 -4.454,2.694 -1.871,0 -3.586,-1.038 -4.454,-2.694 -3.482,-6.642 -15.623,-27.06 -36.554,-35.095 -6.283,6.331 -18.514,21.995 -16.558,46.566 0.403,1.161 1.889,4.986 5.237,9.344 0.236,0.183 0.46,0.369 0.704,0.548 2.915,2.149 5.559,4.763 7.84,7.69 4.587,3.538 8.477,8.222 11.256,13.465 1.264,2.383 2.297,4.882 3.063,7.442 2.861,9.573 1.843,19.48 -2.87,27.894 -1.719,3.07 -3.576,6.199 -5.372,9.223 -6.005,10.113 -12.164,20.507 -14.462,30.775 13.057,6.481 34.446,18.517 47.566,33.37 10e-4,0.002 0.003,0.003 0.004,0.006 0.504,0.57 0.991,1.145 1.469,1.723 0.142,0.173 0.281,0.346 0.421,0.519 0.349,0.431 0.69,0.863 1.023,1.298 0.136,0.177 0.274,0.354 0.408,0.533 0.443,0.592 0.877,1.187 1.291,1.787 0.191,-0.276 0.397,-0.548 0.595,-0.823 15.005,-20.912 48.563,-37.235 59.41,-42.124 -1.527,-11.391 -8.416,-22.994 -15.099,-34.249 -1.796,-3.024 -3.653,-6.152 -5.372,-9.222 -4.713,-8.414 -5.733,-18.321 -2.87,-27.894 0.467,-1.565 1.037,-3.107 1.697,-4.614 -0.661,1.508 -1.08,3.048 -1.548,4.614 -1.424,4.764 -1.249,9.609 -1.249,14.313 l 0,-0.002 c 0,4.75 1.751,9.355 4.119,13.583 1.719,3.07 3.495,6.198 5.291,9.222 6.683,11.255 13.533,22.858 15.059,34.249 -0.435,0.196 -0.938,0.417 -1.443,0.648 -1.763,0.811 -3.942,1.839 -6.411,3.063 -2.297,-10.268 -8.462,-20.662 -14.466,-30.774 -1.796,-3.025 -3.655,-6.153 -5.375,-9.223 -4.712,-8.415 -5.733,-18.321 -2.871,-27.894 2.449,-8.191 7.648,-15.761 14.319,-20.907 -0.069,0.088 -0.132,0.18 -0.2,0.269 2.332,-3.039 5.049,-5.746 8.054,-7.96 z"
       style="fill:#fdd835;fill-opacity:1" /><path
       inkscape:connector-curvature="0"
       id="path71"
       d="m 214.322,131.437 c 0.057,-1.291 0.091,-2.565 0.072,-3.806 0.019,1.241 -0.015,2.516 -0.072,3.806 z"
       style="fill:#fda6b6" /><path
       inkscape:connector-curvature="0"
       id="path73"
       d="m 212.768,114.542 c 0.288,1.198 0.535,2.436 0.755,3.701 -0.22,-1.265 -0.466,-2.503 -0.755,-3.701 z"
       style="fill:#fda6b6" /><path
       inkscape:connector-curvature="0"
       id="path75"
       d="m 213.599,118.653 c 0.201,1.213 0.357,2.467 0.486,3.742 -0.129,-1.275 -0.284,-2.527 -0.486,-3.742 z"
       style="fill:#fda6b6" /></g><path
     inkscape:connector-curvature="0"
     id="path77"
     d="m 200.182,75.905 c -0.15,-0.112 -0.304,-0.213 -0.463,-0.307 -0.518,-6.005 -2.198,-17.507 -7.671,-29.95 -5.171,-11.759 -14.542,-25.924 -31.324,-35.88 2.38,-0.841 3.802,-3.354 3.218,-5.872 -0.626,-2.706 -3.327,-4.391 -6.034,-3.765 -3.842,0.89 -7.439,1.973 -10.824,3.207 -3.385,-1.234 -6.981,-2.318 -10.824,-3.207 -2.703,-0.626 -5.409,1.059 -6.034,3.765 -0.584,2.518 0.838,5.031 3.218,5.872 -16.782,9.956 -26.153,24.121 -31.324,35.88 -7.811,17.757 -7.901,33.616 -7.901,34.282 0,0.013 0.003,0.025 0.003,0.038 -7.66,7.713 -22.028,26.278 -19.495,55.159 0.027,0.307 0.083,0.61 0.164,0.907 0.147,0.531 3.764,13.114 16.969,22.844 10.306,7.594 16.602,23.246 9.294,36.293 -1.656,2.959 -3.4,5.894 -5.246,9.003 -7.981,13.443 -16.235,27.344 -16.791,42.361 -0.079,2.096 1.154,4.021 3.09,4.829 0.487,0.203 48.865,20.612 61.395,44.848 0.865,1.67 2.588,2.72 4.468,2.72 l 2.79,0 c 1.881,0 3.604,-1.05 4.468,-2.72 12.529,-24.236 60.908,-44.644 61.395,-44.848 1.935,-0.808 3.167,-2.732 3.09,-4.828 -0.556,-15.018 -8.81,-28.919 -16.792,-42.363 -1.845,-3.107 -3.588,-6.043 -5.244,-9.001 -7.307,-13.047 -1.012,-28.699 9.294,-36.293 13.205,-9.73 16.82,-22.313 16.969,-22.844 0.081,-0.297 0.136,-0.6 0.164,-0.907 3.352,-38.223 -22.903,-58.383 -24.022,-59.223 z M 111.473,49.37 c 7.41,-16.642 19.361,-28.451 35.611,-35.252 16.251,6.8 28.202,18.609 35.611,35.252 5.09,11.429 6.579,22.181 7.015,27.354 -20.048,6.58 -33.343,22.689 -40.245,33.279 -7.42,-11.387 -22.235,-29.145 -44.884,-34.59 0.567,-5.544 2.198,-15.503 6.892,-26.043 z m 102.755,84.333 c -0.637,1.841 -3.972,10.333 -13.124,17.076 -3.005,2.215 -5.723,4.922 -8.051,7.958 -0.164,0.215 -0.324,0.433 -0.484,0.651 -0.201,0.272 -0.404,0.544 -0.599,0.821 -0.091,0.132 -0.178,0.267 -0.268,0.398 -0.824,1.203 -1.589,2.447 -2.285,3.727 -0.043,0.079 -0.087,0.156 -0.129,0.235 -0.23,0.429 -0.45,0.862 -0.666,1.299 -0.037,0.074 -0.073,0.148 -0.109,0.222 -0.222,0.456 -0.434,0.915 -0.639,1.378 -0.015,0.036 -0.031,0.072 -0.046,0.107 -0.66,1.507 -1.229,3.05 -1.697,4.614 -2.863,9.573 -1.843,19.48 2.87,27.894 1.719,3.07 3.576,6.198 5.372,9.222 6.683,11.255 13.572,22.858 15.099,34.249 -10.848,4.889 -44.406,21.212 -59.41,42.124 -0.198,0.275 -0.404,0.547 -0.595,0.823 -0.414,-0.6 -0.848,-1.194 -1.291,-1.786 -0.135,-0.178 -0.272,-0.355 -0.408,-0.533 -0.333,-0.435 -0.674,-0.867 -1.023,-1.298 -0.14,-0.173 -0.279,-0.347 -0.421,-0.519 -0.479,-0.578 -0.965,-1.154 -1.469,-1.723 -10e-4,-0.003 -0.003,-0.004 -0.004,-0.006 -13.12,-14.852 -34.51,-26.888 -47.566,-33.369 -0.014,-0.007 -0.028,-0.014 -0.042,-0.021 -1.141,-0.565 -2.216,-1.089 -3.218,-1.567 -0.086,-0.041 -0.17,-0.081 -0.255,-0.122 -0.611,-0.291 -1.197,-0.568 -1.747,-0.825 -0.022,-0.011 -0.046,-0.022 -0.069,-0.032 -0.184,-0.086 -0.359,-0.167 -0.536,-0.248 -0.185,-0.086 -0.366,-0.17 -0.543,-0.251 -0.035,-0.016 -0.073,-0.034 -0.108,-0.05 -0.118,-0.054 -0.236,-0.108 -0.349,-0.161 -0.333,-0.151 -0.657,-0.299 -0.956,-0.434 1.433,-10.678 7.577,-21.544 13.846,-32.133 0.417,-0.706 0.836,-1.41 1.254,-2.114 1.796,-3.025 3.653,-6.153 5.372,-9.223 0.589,-1.052 1.121,-2.127 1.594,-3.222 2.366,-5.474 3.281,-11.443 2.697,-17.458 -0.233,-2.407 -0.706,-4.82 -1.422,-7.214 -0.008,-0.03 -0.02,-0.06 -0.028,-0.09 -0.164,-0.544 -0.342,-1.086 -0.53,-1.625 -0.065,-0.186 -0.136,-0.369 -0.203,-0.554 -0.143,-0.391 -0.291,-0.781 -0.445,-1.169 -0.077,-0.192 -0.158,-0.382 -0.239,-0.573 -0.163,-0.389 -0.331,-0.775 -0.505,-1.159 -0.077,-0.169 -0.156,-0.338 -0.234,-0.507 -0.201,-0.424 -0.408,-0.845 -0.623,-1.263 -0.062,-0.12 -0.122,-0.241 -0.184,-0.36 -0.279,-0.53 -0.567,-1.055 -0.867,-1.574 -0.003,-0.004 -0.006,-0.008 -0.007,-0.013 -0.978,-1.685 -2.073,-3.303 -3.267,-4.835 0,0 0,-0.001 -0.001,-0.001 -2.281,-2.927 -4.925,-5.542 -7.84,-7.69 -0.244,-0.18 -0.468,-0.366 -0.704,-0.548 -0.005,-0.004 -0.009,-0.007 -0.014,-0.011 -8.602,-6.65 -11.788,-14.732 -12.408,-16.519 -2.101,-26.394 12.171,-42.515 17.852,-47.824 0.182,-0.171 0.358,-0.331 0.522,-0.48 0.721,0.187 1.43,0.394 2.133,0.61 0.064,0.02 0.129,0.035 0.192,0.055 0.255,0.08 0.504,0.17 0.756,0.254 0.505,0.166 1.01,0.333 1.506,0.513 0.295,0.107 0.584,0.225 0.876,0.338 0.389,0.15 0.775,0.301 1.158,0.458 0.054,0.022 0.11,0.042 0.164,0.064 0.303,0.127 0.601,0.262 0.901,0.394 0.413,0.182 0.826,0.363 1.234,0.555 0.302,0.142 0.598,0.291 0.897,0.438 0.247,0.121 0.49,0.247 0.735,0.371 0.147,0.074 0.295,0.146 0.44,0.222 0.293,0.154 0.582,0.313 0.873,0.472 0.133,0.073 0.264,0.148 0.396,0.222 0.248,0.137 0.498,0.274 0.744,0.415 0.281,0.163 0.559,0.328 0.836,0.494 0.184,0.111 0.366,0.225 0.549,0.337 0.188,0.116 0.378,0.23 0.564,0.347 0.267,0.168 0.532,0.338 0.794,0.51 0.371,0.241 0.737,0.487 1.099,0.735 0.248,0.17 0.495,0.34 0.741,0.512 0.371,0.262 0.735,0.528 1.097,0.796 0.226,0.167 0.453,0.333 0.676,0.502 0.09,0.069 0.177,0.139 0.267,0.208 0.284,0.22 0.568,0.439 0.848,0.661 0.196,0.157 0.396,0.312 0.591,0.471 0.091,0.074 0.18,0.15 0.27,0.225 0.302,0.248 0.602,0.498 0.899,0.749 0.157,0.134 0.317,0.267 0.473,0.401 0.438,0.379 0.866,0.761 1.29,1.146 0.096,0.087 0.194,0.173 0.289,0.26 0.566,0.519 1.116,1.044 1.657,1.571 0.18,0.175 0.352,0.352 0.528,0.528 0.356,0.354 0.711,0.709 1.055,1.066 0.201,0.208 0.396,0.417 0.593,0.625 0.307,0.324 0.611,0.648 0.907,0.972 0.212,0.232 0.418,0.462 0.625,0.694 0.141,0.157 0.278,0.314 0.417,0.472 l 0.001,0.001 0.001,10e-4 c 0.586,0.665 1.154,1.328 1.699,1.987 5.189,6.27 8.579,12.155 10.164,15.18 0.867,1.655 2.581,2.692 4.448,2.694 0.003,0 0.004,0 0.007,0 1.869,0 3.585,-1.038 4.454,-2.694 3.77,-7.19 17.682,-30.536 41.909,-36.826 0.003,-0.001 0.007,-0.002 0.01,-0.003 5.211,4.774 20.538,21.245 18.387,48.303 z"
     style="fill:#e7bd03;fill-opacity:1" /><g
     id="g79" /><g
     id="g81" /><g
     id="g83" /><g
     id="g85" /><g
     id="g87" /><g
     id="g89" /><g
     id="g91" /><g
     id="g93" /><g
     id="g95" /><g
     id="g97" /><g
     id="g99" /><g
     id="g101" /><g
     id="g103" /><g
     id="g105" /><g
     id="g107" /></svg>